<svg xmlns="http://www.w3.org/2000/svg" xmlns:xlink="http://www.w3.org/1999/xlink" width="55" height="55"><path fill-rule="evenodd" fill="#825447" d="M54.141 15.197H.859A.858.858 0 010 14.34V9.559c0-1.412.577-2.711 1.506-3.664l.054-.059A5.289 5.289 0 015.3 4.28h8.451V.854a.858.858 0 011.718 0v9.232a.858.858 0 01-1.718 0V5.994h-8.45a3.58 3.58 0 00-2.524 1.052l-.045.043a3.546 3.546 0 00-1.012 2.47v3.927h51.561V9.559c0-.976-.406-1.866-1.055-2.513l-.041-.043A3.574 3.574 0 0049.7 5.994h-5.875a.86.86 0 01-.859-.857c0-.472.386-.855.859-.855H49.7c1.417 0 2.724.574 3.682 1.5l.059.056A5.241 5.241 0 0155 9.559v4.781a.86.86 0 01-.859.857zm-13.75-4.255a.86.86 0 01-.861-.856V5.994H18.046a.86.86 0 01-.86-.857c0-.472.385-.855.86-.855H39.53V.854a.861.861 0 011.721 0v9.232a.858.858 0 01-.86.856zm-5.92 28.513a3.576 3.576 0 00-2.531-1.042H27.5a.857.857 0 01-.859-.856v-8.843c0-.474.386-.856.859-.856h8.879c.475 0 .859.384.859.856a.857.857 0 01-.859.855h-8.02v7.132h3.581a5.3 5.3 0 013.743 1.545l.004.003a5.26 5.26 0 010 7.458l-.004.003a5.307 5.307 0 01-3.743 1.544H27.5v.001a.858.858 0 01-.859-.855c0-.473.386-.855.859-.855h4.44c.989 0 1.884-.399 2.531-1.041l.004-.003a3.551 3.551 0 001.045-2.522c0-.984-.4-1.878-1.045-2.521l-.004-.003zm-13.63-11.597c.475 0 .859.384.859.856V46.4a.858.858 0 01-1.718 0V30.779l-2.974 2.961a.86.86 0 01-1.215 0 .855.855 0 010-1.209l4.44-4.423a.866.866 0 01.608-.25zM6.66 20.974a.86.86 0 01.86-.856h39.96c.475 0 .859.385.859.856a.857.857 0 01-.859.855H7.52a.858.858 0 01-.86-.855zM.859 17.908c.475 0 .859.384.859.854v30.956c0 .98.405 1.872 1.052 2.518a3.574 3.574 0 002.528 1.048h44.4c.984 0 1.879-.401 2.528-1.048a3.552 3.552 0 001.053-2.518V18.762c0-.472.385-.854.86-.854.474 0 .859.384.859.854v30.956a5.255 5.255 0 01-1.557 3.729 5.291 5.291 0 01-3.743 1.551H5.301a5.294 5.294 0 01-3.744-1.551A5.258 5.258 0 010 49.718V18.762c0-.472.386-.854.859-.854z"/></svg>