<svg 
 xmlns="http://www.w3.org/2000/svg"
 xmlns:xlink="http://www.w3.org/1999/xlink"
 width="55px" height="55px">
<path fill-rule="evenodd"  fill="rgb(130, 84, 71)"
 d="M54.141,15.197 L0.883,15.197 L0.859,15.197 C0.386,15.199 -0.000,14.812 -0.000,14.340 L-0.000,9.559 C-0.000,8.147 0.577,6.848 1.506,5.895 L1.560,5.836 C2.522,4.876 3.847,4.280 5.300,4.280 L13.751,4.280 L13.751,0.854 C13.749,0.383 14.136,-0.003 14.610,-0.003 C15.083,-0.003 15.469,0.383 15.469,0.854 L15.469,10.086 C15.469,10.560 15.083,10.942 14.610,10.942 C14.136,10.942 13.751,10.558 13.751,10.086 L13.751,5.994 L5.301,5.994 C4.325,5.994 3.430,6.397 2.777,7.046 L2.732,7.089 C2.109,7.729 1.720,8.606 1.720,9.559 L1.720,13.486 L53.281,13.486 L53.281,9.559 C53.281,8.583 52.875,7.693 52.226,7.046 L52.185,7.003 C51.541,6.380 50.660,5.994 49.700,5.994 L43.825,5.994 C43.351,5.994 42.966,5.609 42.966,5.137 C42.966,4.665 43.352,4.282 43.825,4.282 L49.700,4.282 C51.117,4.282 52.424,4.856 53.382,5.782 L53.441,5.838 C54.401,6.793 55.000,8.110 55.000,9.559 L55.000,14.318 L55.000,14.340 C55.000,14.812 54.613,15.197 54.141,15.197 ZM40.391,10.942 C39.917,10.942 39.530,10.558 39.530,10.086 L39.530,5.994 L18.046,5.994 C17.573,5.994 17.186,5.610 17.186,5.137 C17.186,4.665 17.571,4.282 18.046,4.282 L39.530,4.282 L39.530,0.854 C39.530,0.383 39.917,-0.003 40.391,-0.003 C40.866,-0.003 41.251,0.383 41.251,0.854 L41.251,10.086 C41.251,10.560 40.864,10.942 40.391,10.942 ZM34.471,39.455 C33.824,38.811 32.929,38.413 31.940,38.413 L27.500,38.413 C27.025,38.413 26.641,38.030 26.641,37.557 L26.641,37.535 L26.641,28.714 C26.641,28.240 27.027,27.858 27.500,27.858 L27.521,27.858 L36.379,27.858 C36.854,27.858 37.238,28.242 37.238,28.714 C37.238,29.187 36.852,29.569 36.379,29.569 L28.359,29.569 L28.359,36.701 L31.940,36.701 C33.400,36.701 34.725,37.294 35.683,38.246 L35.687,38.249 C36.645,39.203 37.238,40.526 37.238,41.977 C37.238,43.433 36.643,44.752 35.687,45.707 L35.683,45.710 C34.725,46.661 33.398,47.254 31.940,47.254 L27.500,47.254 L27.500,47.255 C27.025,47.255 26.641,46.870 26.641,46.400 C26.641,45.927 27.027,45.545 27.500,45.545 L31.940,45.545 C32.929,45.545 33.824,45.146 34.471,44.504 L34.475,44.501 C35.120,43.857 35.520,42.966 35.520,41.979 C35.520,40.995 35.120,40.101 34.475,39.458 L34.471,39.455 ZM20.841,27.858 C21.316,27.858 21.700,28.242 21.700,28.714 L21.700,46.400 C21.700,46.872 21.314,47.255 20.841,47.255 C20.366,47.255 19.982,46.870 19.982,46.400 L19.982,30.779 L17.008,33.740 C16.674,34.075 16.127,34.075 15.793,33.740 C15.459,33.408 15.459,32.864 15.793,32.531 L20.233,28.108 C20.390,27.954 20.604,27.858 20.841,27.858 ZM6.660,20.974 C6.660,20.503 7.047,20.118 7.520,20.118 L47.480,20.118 C47.955,20.118 48.339,20.503 48.339,20.974 C48.339,21.445 47.955,21.829 47.480,21.829 L7.520,21.829 C7.045,21.829 6.660,21.445 6.660,20.974 ZM0.859,17.908 C1.334,17.908 1.718,18.292 1.718,18.762 L1.718,49.718 C1.718,50.698 2.123,51.590 2.770,52.236 C3.419,52.883 4.314,53.284 5.298,53.284 L49.698,53.284 C50.682,53.284 51.577,52.883 52.226,52.236 C52.875,51.588 53.279,50.698 53.279,49.718 L53.279,18.762 C53.279,18.290 53.664,17.908 54.139,17.908 C54.613,17.908 54.998,18.292 54.998,18.762 L54.998,49.718 C54.998,51.170 54.401,52.491 53.441,53.447 C52.481,54.404 51.156,54.998 49.698,54.998 L5.301,54.998 C3.843,54.998 2.517,54.404 1.557,53.447 C0.597,52.491 -0.000,51.168 -0.000,49.718 L-0.000,18.762 C-0.000,18.290 0.386,17.908 0.859,17.908 Z"/>
</svg>